<?xml version="1.0" standalone="no"?>
<!DOCTYPE svg PUBLIC "-//W3C//DTD SVG 20010904//EN"
 "http://www.w3.org/TR/2001/REC-SVG-20010904/DTD/svg10.dtd">
<svg version="1.0" xmlns="http://www.w3.org/2000/svg"
 width="1200.000000pt" height="1200.000000pt" viewBox="0 0 1200.000000 1200.000000"
 preserveAspectRatio="xMidYMid meet">
<metadata>
Created by potrace 1.16, written by Peter Selinger 2001-2019
</metadata>
<g transform="translate(0.000000,1200.000000) scale(0.100000,-0.100000)"
fill="#000000" stroke="none">
<path d="M5940 11980 c-186 -49 -332 -156 -402 -298 l-36 -71 -26 39 c-60 91
-146 127 -334 143 -116 10 -151 9 -260 -7 -198 -28 -443 -74 -602 -113 -346
-84 -461 -162 -626 -428 -94 -151 -178 -236 -393 -399 -236 -179 -334 -294
-384 -451 -34 -106 -31 -272 6 -386 33 -100 77 -164 143 -207 l47 -32 -91 0
c-238 0 -442 -99 -442 -215 0 -61 60 -126 164 -177 l63 -31 52 -128 c54 -131
123 -257 192 -347 45 -60 53 -53 -91 -72 -201 -27 -413 -100 -567 -195 -81
-51 -282 -243 -315 -301 l-17 -31 53 -64 c90 -109 221 -193 371 -238 39 -11
169 -37 290 -56 321 -53 430 -95 560 -220 34 -33 88 -100 120 -150 130 -204
174 -264 264 -358 207 -215 420 -309 701 -309 239 0 507 82 770 236 l63 37 56
-13 c80 -19 372 -16 491 5 191 33 377 98 520 183 88 53 228 176 274 243 16 23
36 41 45 41 28 0 128 65 215 139 78 67 291 280 486 486 189 201 371 290 930
460 191 58 372 125 405 149 18 13 16 19 -54 110 -434 567 -841 863 -1126 817
-33 -5 -61 -8 -63 -6 -1 1 29 28 67 59 254 208 436 488 480 740 16 87 13 271
-4 365 -20 103 -76 265 -123 356 -50 97 -212 259 -349 349 -249 164 -569 291
-876 346 -158 29 -536 28 -647 0z m370 -191 c487 -44 1075 -324 1259 -600 114
-171 171 -467 125 -659 -30 -128 -124 -287 -269 -455 -117 -136 -273 -336
-327 -420 -101 -155 -169 -300 -328 -693 -106 -263 -95 -265 -95 18 -1 284
-22 456 -80 641 -4 12 9 21 52 37 131 48 322 191 425 319 74 92 91 118 131
199 48 97 62 156 62 254 -1 72 -5 95 -29 148 -16 34 -33 62 -37 62 -5 0 -9
-24 -9 -52 0 -84 -37 -215 -91 -327 -44 -91 -63 -116 -142 -196 -67 -66 -112
-102 -164 -129 -59 -30 -173 -76 -189 -76 -2 0 13 26 33 57 133 208 196 456
197 768 0 312 -59 525 -175 629 -116 106 -229 115 -579 48 -202 -39 -358 -62
-424 -62 l-29 0 7 63 c9 84 22 120 69 200 83 139 193 204 385 227 97 11 96 11
222 -1z m-1037 -172 c41 -18 77 -61 77 -94 0 -54 -68 -142 -136 -177 -47 -23
-109 -35 -274 -51 -237 -24 -360 -73 -463 -184 -69 -75 -101 -132 -167 -297
l-53 -131 -36 9 c-67 16 -311 21 -404 8 -100 -14 -104 -17 -133 -115 -26 -86
-23 -277 6 -410 17 -79 107 -368 145 -467 10 -26 -31 -23 -166 11 -206 52
-428 153 -517 234 -87 81 -127 192 -120 337 8 162 76 250 325 423 170 118 297
244 425 423 148 205 221 256 492 340 285 89 728 168 888 159 42 -2 92 -11 111
-18z m224 -447 c19 0 53 -5 75 -12 30 -9 65 -9 151 1 107 12 279 36 342 48
l29 6 -27 -36 c-31 -41 -35 -88 -12 -144 8 -19 15 -37 15 -38 0 -2 -26 14 -58
35 -81 55 -189 88 -318 99 -60 5 -112 7 -117 4 -12 -7 -281 -61 -286 -57 -2 2
17 32 43 68 25 35 46 67 46 70 0 3 -19 6 -42 6 l-42 0 24 17 c45 29 91 77 113
117 l22 38 3 -111 3 -111 36 0z m940 -21 c51 -19 129 -88 155 -136 48 -90 63
-214 48 -388 -26 -297 -130 -642 -245 -815 -76 -114 -236 -254 -453 -394 -217
-141 -539 -313 -763 -409 -125 -53 -149 -61 -149 -49 0 5 86 98 190 206 105
109 190 202 190 206 0 4 120 104 268 220 468 373 623 552 684 793 17 68 20
101 15 202 -5 128 -20 190 -83 343 -50 121 -45 173 19 212 36 22 81 25 124 9z
m-1392 -158 c-41 -71 -87 -165 -101 -208 -24 -71 -26 -88 -21 -188 3 -60 12
-131 20 -157 l15 -47 -45 -7 c-83 -12 -161 16 -317 116 -78 49 -145 91 -151
93 -22 8 67 259 113 321 28 37 126 106 210 146 39 20 243 57 319 59 l32 1 -74
-129z m740 -16 c90 -19 204 -75 243 -120 76 -85 58 -177 -56 -288 l-49 -49
-38 62 c-58 95 -137 175 -211 211 -56 28 -71 31 -118 26 -69 -7 -108 -28 -168
-89 -60 -62 -153 -218 -129 -218 4 0 37 19 72 42 85 55 152 88 178 88 26 0 85
-30 125 -64 l29 -24 -64 -47 c-175 -130 -301 -137 -424 -24 l-47 44 4 85 c7
148 77 254 211 320 117 57 296 76 442 45z m-1547 -524 c42 -13 106 -51 214
-126 234 -164 402 -236 628 -270 291 -45 641 14 956 159 40 19 74 31 74 27 0
-4 -23 -44 -50 -89 -88 -143 -172 -221 -446 -415 -260 -185 -503 -410 -661
-615 l-72 -92 -75 60 c-88 71 -155 143 -206 222 -30 46 -39 71 -45 125 -15
140 -63 242 -181 380 -67 79 -100 137 -110 188 l-7 39 24 -17 c140 -99 267
-159 429 -201 280 -74 543 -51 818 69 34 15 62 32 62 37 0 6 -8 7 -17 3 -36
-13 -359 -18 -468 -6 -350 38 -627 148 -879 351 -48 39 -90 70 -91 68 -10 -10
-25 -162 -25 -245 0 -180 36 -280 146 -418 63 -78 84 -119 84 -165 0 -36 -4
-36 -49 -9 -188 114 -342 386 -386 678 -15 99 -20 263 -8 274 3 4 68 7 144 7
106 0 151 -4 197 -19z m1530 -26 c6 -14 30 -45 53 -70 23 -25 40 -47 38 -49
-2 -2 -39 -13 -81 -25 -186 -52 -380 -70 -563 -52 -205 20 -207 31 -5 25 168
-5 191 -4 251 15 65 21 179 89 249 150 19 17 38 31 41 31 3 0 11 -11 17 -25z
m-2432 -850 c511 -72 1035 -327 1349 -655 141 -147 446 -349 698 -461 140 -63
330 -127 512 -173 133 -33 578 -136 590 -136 13 0 3 -144 -15 -214 -29 -113
-82 -206 -170 -296 -153 -155 -369 -259 -670 -321 -162 -34 -445 -34 -597 -1
-285 62 -551 191 -828 401 -135 102 -438 406 -569 571 -119 149 -289 397 -388
565 -67 115 -208 377 -208 389 0 3 26 -7 58 -23 102 -52 232 -91 431 -131 220
-44 318 -73 424 -126 90 -45 219 -134 315 -215 40 -34 75 -59 78 -56 8 8 -20
97 -49 153 -77 152 -245 283 -442 343 -38 12 -140 33 -225 46 -250 39 -375 69
-579 140 -172 60 -241 101 -241 144 0 17 48 43 103 57 71 17 300 17 423 -1z
m4315 -31 c75 -22 170 -75 264 -149 143 -112 480 -475 459 -495 -5 -4 -90 -27
-189 -50 -392 -91 -560 -152 -740 -268 -49 -32 -177 -151 -422 -396 -194 -193
-353 -346 -353 -341 0 6 7 48 15 95 19 107 19 249 1 320 l-14 54 50 75 c64 93
113 198 226 476 194 478 296 624 477 681 56 18 161 17 226 -2z m-1233 -167
c72 -216 95 -462 63 -662 -17 -105 -67 -335 -75 -342 -15 -16 -452 93 -681
168 -176 59 -410 164 -468 211 l-28 23 248 129 c485 252 667 371 833 540 65
67 64 68 108 -67z m-3170 -845 c132 -226 349 -500 566 -717 361 -359 688 -554
1091 -651 25 -6 14 -10 -75 -30 -287 -64 -525 -71 -675 -20 -189 64 -307 174
-493 456 -116 176 -166 236 -256 306 -136 107 -279 157 -564 200 -215 32 -301
53 -383 94 -64 33 -169 123 -169 146 0 24 114 114 200 158 138 72 264 107 520
146 185 28 165 36 238 -88z"/>
<path d="M7835 7909 c-55 -23 -107 -47 -115 -54 -8 -7 -34 -22 -57 -34 -35
-18 -42 -18 -45 -5 -2 10 -41 -16 -123 -85 l-120 -100 -3 54 c-2 30 -6 55 -10
54 -11 -1 -344 -386 -386 -447 -57 -84 -167 -317 -226 -482 -29 -80 -61 -155
-72 -166 -11 -12 -81 -55 -156 -95 -75 -40 -158 -85 -183 -100 l-46 -26 -17
76 c-21 92 -77 268 -118 371 -44 111 -110 250 -119 250 -4 0 -35 -13 -70 -30
-35 -16 -88 -35 -118 -41 -31 -7 -58 -14 -59 -15 -2 -1 15 -44 38 -96 100
-220 173 -448 216 -677 22 -110 27 -176 31 -346 8 -320 -26 -532 -137 -865
-46 -140 -171 -462 -186 -479 -2 -2 -32 26 -67 61 -35 36 -117 105 -182 154
l-118 89 -22 110 c-44 217 -94 376 -165 515 -20 41 -110 182 -198 314 l-161
238 -3 -61 -3 -61 -108 91 c-59 50 -131 103 -160 119 -113 62 -287 150 -297
150 -5 0 -10 -16 -10 -35 0 -19 -2 -35 -5 -35 -3 0 -58 26 -123 58 -111 56
-124 60 -247 76 -71 10 -138 20 -147 22 -12 4 -18 0 -18 -10 0 -18 -11 -21
-26 -6 -6 6 -51 15 -100 21 -49 5 -132 16 -184 24 -52 8 -96 12 -99 9 -2 -2 3
-19 11 -38 l16 -33 -135 -6 c-75 -4 -173 -7 -217 -7 -137 0 -342 -27 -536 -70
-102 -22 -193 -44 -204 -48 -15 -7 3 -26 115 -123 74 -63 173 -145 221 -182
84 -65 162 -145 201 -207 l18 -29 -55 -17 c-31 -10 -56 -22 -56 -27 0 -5 34
-52 75 -103 41 -51 80 -104 86 -117 6 -13 25 -32 42 -42 25 -15 28 -19 14 -24
-13 -5 5 -28 84 -106 55 -55 113 -118 129 -141 16 -23 52 -58 79 -80 28 -21
51 -41 51 -44 0 -4 -25 -14 -56 -24 -31 -10 -52 -21 -48 -26 5 -4 109 -58 231
-119 158 -80 248 -119 314 -137 51 -14 95 -26 97 -29 2 -2 -21 -20 -52 -41
-31 -20 -53 -40 -49 -44 4 -4 105 -27 223 -51 l215 -44 390 3 c233 1 418 -2
460 -8 166 -25 318 -105 408 -216 52 -64 117 -172 117 -195 0 -8 -30 -86 -66
-174 -315 -769 -386 -1371 -244 -2076 103 -512 354 -1115 708 -1701 l53 -88
150 0 c82 0 149 2 149 5 0 2 -34 63 -75 135 -380 661 -612 1286 -690 1855 -23
166 -31 501 -16 661 43 453 147 792 471 1529 298 679 393 985 429 1374 9 93
13 109 40 145 17 23 63 88 103 146 127 185 240 271 403 305 133 28 241 21 620
-40 233 -37 351 -40 604 -16 118 11 216 22 218 25 3 3 -20 21 -51 42 -31 20
-54 39 -51 42 2 2 48 17 102 33 108 30 533 201 536 214 1 5 -19 16 -45 24 -27
8 -48 17 -48 20 0 3 30 21 66 40 85 44 376 284 350 289 -14 3 16 39 125 148
l143 143 -28 10 c-15 6 -38 14 -52 17 -13 3 -26 10 -29 14 -6 10 129 138 206
195 33 24 136 92 229 150 94 59 170 108 170 110 0 2 -82 31 -183 64 -161 54
-222 68 -516 121 -184 33 -343 60 -353 60 -21 0 -22 7 -3 40 29 50 29 50 -180
50 -156 0 -202 -3 -225 -15 -27 -14 -30 -14 -30 1 0 13 -6 15 -27 11 -16 -3
-80 -13 -143 -22 -191 -28 -258 -43 -315 -69 l-55 -25 0 60 c0 32 -3 59 -7 58
-5 0 -53 -18 -108 -40z m395 -199 c0 -11 6 -20 14 -20 7 0 80 9 161 20 177 24
183 24 167 8 -7 -7 -12 -15 -12 -18 0 -4 78 -10 173 -13 94 -4 231 -14 302
-22 230 -27 499 -81 493 -100 -2 -5 -48 -49 -103 -96 -145 -125 -406 -380
-402 -392 1 -5 24 -17 50 -25 26 -8 47 -19 47 -23 0 -12 -60 -49 -170 -104
-109 -55 -220 -123 -220 -135 0 -5 25 -17 55 -26 52 -17 54 -19 38 -36 -24
-27 -205 -113 -363 -172 -78 -30 -143 -56 -146 -59 -3 -3 20 -14 51 -23 55
-18 56 -19 29 -26 -16 -4 -132 -26 -259 -49 -245 -43 -315 -58 -315 -67 0 -4
17 -24 38 -45 l37 -38 -65 6 c-116 11 -222 26 -372 50 -341 56 -534 54 -706
-4 -117 -41 -184 -84 -284 -182 l-87 -86 -6 51 c-4 28 -13 66 -21 84 -11 28
-11 37 -1 52 29 42 119 104 250 172 148 77 226 137 256 197 10 20 44 101 76
181 64 161 185 418 233 495 l32 50 0 -37 c0 -21 4 -38 8 -38 10 0 92 86 165
173 49 58 67 69 67 42 0 -8 3 -15 6 -15 10 0 65 41 169 125 55 45 112 90 128
99 l27 18 0 -36 c0 -34 2 -36 33 -36 17 0 111 27 207 60 192 66 220 71 220 40z
m-4493 -1541 c54 -17 127 -44 162 -60 35 -16 68 -29 72 -29 5 0 9 16 9 35 0
19 5 35 11 35 17 0 146 -62 274 -133 l120 -66 5 42 5 42 105 -100 c194 -186
220 -205 220 -170 0 47 89 -60 166 -200 l38 -69 9 34 c5 19 12 39 17 44 27 27
191 -421 245 -669 10 -44 23 -91 31 -106 18 -37 86 -96 194 -169 103 -71 194
-157 224 -211 l18 -35 -37 -73 c-20 -41 -40 -70 -44 -65 -3 5 -23 34 -43 64
-50 74 -150 171 -222 214 -65 39 -177 78 -276 98 -46 8 -142 11 -325 8 -323
-6 -520 -4 -542 4 -14 6 -10 13 21 45 l38 39 -58 7 c-153 18 -419 91 -487 134
l-31 20 27 10 c15 6 39 14 53 17 43 11 35 21 -44 54 -154 64 -442 225 -442
248 0 5 25 16 56 26 47 15 53 20 43 32 -7 9 -72 56 -144 105 -73 49 -152 106
-176 127 l-43 37 63 5 63 5 -69 105 c-85 127 -184 255 -292 375 -75 84 -79 90
-58 97 50 15 280 29 585 35 304 6 322 7 322 25 0 25 23 23 137 -13z"/>
<path d="M8001 7320 c-35 -96 -72 -199 -83 -228 -18 -49 -24 -55 -90 -88 -38
-19 -72 -33 -75 -30 -3 2 2 70 11 150 18 167 20 209 7 202 -12 -8 -92 -200
-133 -318 l-32 -95 -69 -17 c-39 -9 -72 -14 -74 -12 -3 2 13 84 35 180 21 97
36 176 32 176 -6 0 -94 -223 -152 -389 l-23 -64 -140 -80 c-77 -44 -142 -81
-144 -84 -3 -2 6 -15 20 -28 l24 -24 146 63 146 63 207 -83 c113 -45 206 -79
206 -75 0 4 -46 36 -102 71 -57 35 -128 80 -158 99 l-54 34 54 19 55 18 223
-81 c123 -45 225 -79 228 -76 3 2 -67 49 -155 104 l-160 100 79 38 79 39 213
-59 c117 -32 219 -61 227 -63 8 -3 12 -1 8 4 -3 6 -85 45 -182 89 l-176 78 98
58 99 59 179 -60 c99 -33 184 -60 190 -59 5 0 -45 28 -113 62 l-123 62 246
144 c135 79 244 145 242 148 -3 2 -130 -32 -283 -76 -153 -44 -280 -78 -282
-76 -2 1 22 53 53 115 31 62 54 114 52 117 -3 2 -51 -61 -107 -140 -101 -142
-103 -144 -176 -180 -50 -25 -74 -32 -74 -24 0 8 16 92 35 188 20 96 34 181
33 189 -2 8 -32 -64 -67 -160z"/>
<path d="M3845 5858 c10 -49 36 -250 32 -254 -2 -2 -120 50 -262 116 -142 66
-261 117 -264 114 -3 -3 0 -8 6 -12 6 -4 115 -77 243 -162 l232 -155 -163 -41
c-188 -48 -174 -52 86 -25 l170 18 78 -57 c43 -32 75 -60 70 -63 -4 -2 -86
-30 -181 -62 -95 -31 -171 -59 -169 -62 3 -2 116 14 251 36 l246 41 77 -38 76
-39 -177 -98 c-162 -90 -218 -126 -170 -111 69 20 427 116 436 116 14 0 108
-60 108 -69 0 -3 -67 -30 -148 -60 -228 -84 -222 -86 83 -25 l169 34 121 -80
c66 -44 125 -80 131 -80 16 0 87 77 81 87 -4 5 -59 45 -125 88 l-118 79 -21
75 c-32 113 -146 427 -151 413 -3 -11 23 -304 34 -370 l5 -33 -79 40 -78 39
-38 214 c-21 117 -42 220 -47 228 -5 8 -9 -73 -9 -187 0 -112 -3 -203 -7 -203
-5 0 -39 17 -77 38 l-68 37 -59 235 c-84 334 -86 337 -58 61 11 -106 18 -195
16 -197 -2 -2 -27 12 -55 32 -50 33 -57 44 -135 199 -76 154 -104 197 -92 143z"/>
</g>
</svg>
