<?xml version="1.0" standalone="no"?>
<!DOCTYPE svg PUBLIC "-//W3C//DTD SVG 20010904//EN"
 "http://www.w3.org/TR/2001/REC-SVG-20010904/DTD/svg10.dtd">
<svg version="1.0" xmlns="http://www.w3.org/2000/svg"
 width="300.000000pt" height="225.000000pt" viewBox="0 0 300.000000 225.000000"
 preserveAspectRatio="xMidYMid meet">
<metadata>
Created by potrace 1.10, written by Peter Selinger 2001-2011
</metadata>
<g transform="translate(0.000000,225.000000) scale(0.100000,-0.100000)"
fill="#000000" stroke="none">
<path d="M1390 1794 c-147 -39 -301 -141 -387 -257 -47 -64 -103 -174 -107
-212 -1 -11 -5 -25 -9 -31 -3 -6 -12 -49 -18 -97 -42 -290 123 -585 399 -714
132 -62 298 -79 446 -48 89 19 215 81 292 144 63 51 145 152 183 225 15 28 16
33 4 16 -86 -119 -186 -170 -334 -170 -157 0 -285 89 -325 228 -14 48 -15 66
-6 112 33 158 190 232 353 165 94 -38 148 -42 203 -15 71 34 91 75 91 185 0
104 -21 162 -93 252 -76 96 -220 184 -353 217 -82 20 -263 20 -339 0z m350
-25 c73 -25 137 -54 178 -81 24 -15 47 -28 52 -28 5 0 15 -9 23 -20 8 -11 17
-17 20 -14 12 12 47 -62 47 -99 0 -30 -7 -46 -30 -69 -29 -28 -35 -30 -89 -26
-46 3 -84 17 -182 65 -140 69 -225 97 -319 107 -186 19 -381 -64 -486 -207
-24 -33 -44 -56 -44 -52 0 25 72 134 113 171 27 24 43 44 37 44 -7 0 2 15 21
33 49 45 88 77 96 77 3 0 20 10 37 23 42 31 126 66 200 83 72 16 272 12 326
-7z m-206 -199 c14 -5 26 -7 26 -4 0 4 7 1 15 -6 8 -7 15 -9 15 -6 0 4 12 1
28 -7 15 -8 44 -22 64 -30 31 -14 37 -21 35 -44 -2 -23 4 -31 32 -45 18 -9 43
-31 55 -50 43 -63 37 -72 -14 -24 -40 37 -57 47 -76 43 -18 -3 -24 0 -24 13 0
29 -25 43 -49 29 -15 -10 -17 -17 -10 -31 5 -10 19 -18 29 -18 15 0 20 -7 20
-29 0 -33 -15 -48 -33 -33 -7 5 -42 8 -78 8 -89 -2 -149 -38 -193 -116 -27
-48 -31 -64 -31 -131 0 -67 5 -85 37 -150 20 -41 56 -94 80 -118 43 -43 128
-107 128 -96 0 3 6 1 13 -5 69 -58 172 -92 269 -89 62 2 142 20 177 39 35 18
24 -5 -21 -47 -44 -39 -170 -125 -192 -129 -6 -1 -33 -9 -61 -18 -27 -9 -72
-16 -100 -17 -48 -2 -48 -2 -15 -9 24 -5 3 -8 -70 -9 -167 -2 -302 38 -420
124 -117 86 -189 178 -205 264 -2 9 -4 16 -5 16 -7 0 -12 53 -11 117 1 105 39
219 95 286 52 63 145 126 215 146 80 23 92 20 34 -10 -64 -31 -117 -89 -151
-162 -31 -68 -42 -209 -22 -293 29 -128 136 -293 233 -361 18 -12 3 7 -33 43
-78 78 -122 138 -115 157 2 7 1 11 -4 8 -22 -14 -87 193 -67 215 6 7 7 9 1 6
-13 -7 -17 121 -4 128 5 4 9 18 9 32 0 36 45 124 83 163 44 45 121 78 182 78
28 0 55 -3 60 -6 6 -4 20 -8 32 -10 13 -1 44 -12 69 -23 65 -27 66 -17 2 13
-78 37 -143 49 -236 44 -68 -3 -96 -10 -147 -35 -91 -45 -158 -109 -199 -191
-45 -91 -60 -165 -53 -270 4 -82 2 -84 -21 -10 -19 58 -24 285 -9 323 8 18 12
38 10 45 -3 6 0 12 6 12 6 0 11 8 11 19 0 10 7 24 15 31 8 7 15 18 15 25 0 8
3 15 8 17 4 2 19 18 35 36 15 19 27 31 27 28 0 -3 15 10 33 29 18 19 48 40 67
46 19 7 37 16 40 20 3 4 14 9 25 11 11 1 22 6 25 10 3 3 30 9 60 13 30 4 56 8
58 10 7 6 172 -6 196 -15z m581 -81 c9 -16 12 -29 8 -29 -5 0 -3 -4 3 -8 24
-17 44 -174 24 -187 -14 -9 -40 13 -51 42 -9 25 -16 28 -38 14 -12 -8 -12 -12
-2 -25 7 -9 10 -24 6 -33 -6 -16 -10 -14 -31 12 -13 17 -24 36 -24 43 0 6 -3
12 -7 12 -5 1 -29 20 -54 43 l-46 43 43 1 c63 2 96 22 118 70 22 46 29 46 51
2z m-335 -24 c9 -11 10 -19 3 -26 -14 -14 -53 6 -53 26 0 20 34 19 50 0z
m-102 -47 c-3 -7 -11 -13 -18 -13 -7 0 -15 6 -17 13 -3 7 4 12 17 12 13 0 20
-5 18 -12z m232 -35 c14 -9 54 -47 89 -84 64 -68 81 -76 81 -38 0 24 6 24 32
-1 12 -11 28 -20 36 -20 17 0 -48 -68 -68 -71 -40 -4 -60 4 -93 37 -34 35 -65
39 -52 7 3 -9 -13 1 -35 21 -48 43 -76 44 -73 2 2 -30 9 -43 19 -34 3 4 0 16
-6 28 -20 38 -2 34 51 -10 38 -32 53 -40 59 -30 6 10 15 8 39 -10 18 -12 44
-26 59 -30 l27 -8 -28 -1 c-33 -1 -114 16 -139 30 -10 5 -29 9 -42 9 -32 0
-204 134 -177 138 16 3 19 9 14 38 -3 19 -2 34 3 34 12 0 49 -25 92 -62 63
-54 84 -23 32 46 -16 21 -27 43 -24 47 6 10 64 -12 104 -38z m-253 -86 c15
-12 45 -34 65 -47 43 -29 48 -40 16 -40 -65 0 -200 -98 -214 -155 -3 -14 -9
-25 -13 -25 -8 0 -7 -144 1 -170 7 -24 39 -83 57 -105 16 -19 16 -19 -14 -1
-53 33 -124 119 -161 195 -34 69 -36 78 -32 150 9 144 80 220 210 221 44 0 63
-5 85 -23z m428 13 c3 -5 -1 -10 -10 -10 -9 0 -13 5 -10 10 3 6 8 10 10 10 2
0 7 -4 10 -10z m-125 -90 c0 -5 -4 -10 -10 -10 -5 0 -10 5 -10 10 0 6 5 10 10
10 6 0 10 -4 10 -10z"/>
<path d="M1105 1580 c-3 -6 1 -7 9 -4 18 7 21 14 7 14 -6 0 -13 -4 -16 -10z"/>
<path d="M1025 1318 c-25 -28 -51 -61 -56 -72 -6 -12 0 -7 13 9 12 17 40 49
62 73 21 23 36 42 33 42 -3 0 -26 -23 -52 -52z"/>
<path d="M935 1189 c-4 -6 -5 -12 -2 -15 2 -3 7 2 10 11 7 17 1 20 -8 4z"/>
<path d="M1301 1090 c0 -36 4 -74 8 -85 5 -11 6 12 4 55 -6 98 -11 112 -12 30z"/>
<path d="M1072 1120 c0 -14 2 -19 5 -12 2 6 2 18 0 25 -3 6 -5 1 -5 -13z"/>
<path d="M1062 1060 c0 -14 2 -19 5 -12 2 6 2 18 0 25 -3 6 -5 1 -5 -13z"/>
<path d="M1072 960 c0 -19 2 -27 5 -17 2 9 2 25 0 35 -3 9 -5 1 -5 -18z"/>
<path d="M1320 970 c0 -39 88 -165 150 -215 13 -11 -1 8 -32 42 -31 34 -70 90
-87 124 -17 34 -31 56 -31 49z"/>
<path d="M1087 885 c3 -22 10 -45 15 -52 5 -7 6 -18 2 -25 -5 -9 -4 -10 4 -3
8 7 5 26 -8 65 -18 50 -19 51 -13 15z"/>
<path d="M1390 546 c0 -3 14 -12 30 -21 17 -9 30 -13 30 -11 0 3 -13 12 -30
21 -16 9 -30 13 -30 11z"/>
<path d="M1460 506 c0 -2 7 -7 16 -10 8 -3 12 -2 9 4 -6 10 -25 14 -25 6z"/>
</g>
</svg>
